<?xml version="1.0" encoding="UTF-8"?>
<svg width="205" height="75" version="1.1" viewBox="0 0 205 75" xmlns="http://www.w3.org/2000/svg">
 <mask x="0" y="0" width="205" height="75" fill="black" maskUnits="userSpaceOnUse">
  <rect width="205" height="75" fill="#fff"/>
  <path d="m16.654 74c-3.7232 0-7.3617-1.4145-10.239-3.9783-3.4693-3.0942-5.4155-7.6029-5.4155-12.377v-26.522c0-6.7189 3.8078-12.642 9.7309-15.118l32.662-13.791c4.1463-1.7681 8.8002-1.5913 12.777 0.44203 3.9769 2.0334 6.9385 5.7464 8.1232 10.255l9.1386 33.948c1.1846 4.5087 0.5077 9.3711-1.9462 13.261s-6.4309 6.5421-10.831 7.2493l-41.716 6.3653c-0.7615 0.1768-1.5231 0.2652-2.2846 0.2652zm-3.977-53.132c-3.977 1.6798-6.6001 5.658-6.6001 10.167v26.522c0 3.1826 1.3539 6.2769 3.6385 8.3102 2.2847 2.1218 5.4155 3.0058 8.4617 2.5638l41.716-6.2769c2.9616-0.442 5.6693-2.2101 7.277-4.8623s2.1154-5.9232 1.2693-8.9291l-9.054-34.036c-0.8462-3.0059-2.7924-5.5696-5.5001-6.8957-2.7077-1.4145-5.8385-1.5029-8.6309-0.35363l-32.577 13.791z"/>
  <path d="m107.48 46.5h0.774c1.404 0 2.484 0.372 3.24 1.116 0.768 0.744 1.152 1.806 1.152 3.186 0 0.792-0.192 1.518-0.576 2.178-0.372 0.66-0.882 1.182-1.53 1.566-0.648 0.372-1.362 0.558-2.142 0.558h-0.126l4.644 4.896h-0.774l-4.086-4.284v4.284h-0.576v-13.5zm0.9 8.082c0.684 0 1.308-0.168 1.872-0.504s1.008-0.786 1.332-1.35c0.324-0.576 0.486-1.212 0.486-1.908 0-1.212-0.33-2.148-0.99-2.808-0.648-0.66-1.578-0.99-2.79-0.99h-0.234v7.56h0.324z"/>
  <path d="m125.14 60.36c-1.26 0-2.43-0.33-3.51-0.99s-1.938-1.536-2.574-2.628c-0.624-1.104-0.936-2.286-0.936-3.546 0-1.248 0.318-2.412 0.954-3.492 0.636-1.092 1.494-1.956 2.574-2.592 1.08-0.648 2.25-0.972 3.51-0.972 1.272 0 2.442 0.318 3.51 0.954s1.914 1.5 2.538 2.592c0.636 1.08 0.954 2.25 0.954 3.51 0 1.296-0.318 2.496-0.954 3.6-0.624 1.092-1.476 1.962-2.556 2.61-1.068 0.636-2.238 0.954-3.51 0.954zm0-0.522c1.152 0 2.22-0.294 3.204-0.882 0.984-0.6 1.764-1.404 2.34-2.412 0.588-1.02 0.882-2.124 0.882-3.312 0-1.176-0.288-2.268-0.864-3.276s-1.356-1.806-2.34-2.394c-0.984-0.6-2.052-0.9-3.204-0.9-1.164 0-2.238 0.3-3.222 0.9-0.984 0.588-1.77 1.386-2.358 2.394-0.576 1.008-0.864 2.1-0.864 3.276 0 1.188 0.288 2.292 0.864 3.312 0.588 1.008 1.374 1.812 2.358 2.412 0.984 0.588 2.052 0.882 3.204 0.882z"/>
  <path d="m144.55 60.36c-1.26 0-2.418-0.306-3.474-0.918-1.056-0.624-1.896-1.476-2.52-2.556-0.612-1.092-0.918-2.316-0.918-3.672 0-1.308 0.318-2.502 0.954-3.582 0.648-1.08 1.506-1.932 2.574-2.556 1.08-0.624 2.226-0.936 3.438-0.936 0.84 0 1.506 0.078 1.998 0.234 0.492 0.144 1.062 0.402 1.71 0.774v0.666c-0.612-0.42-1.182-0.714-1.71-0.882-0.516-0.18-1.164-0.27-1.944-0.27-1.188 0-2.274 0.306-3.258 0.918-0.972 0.6-1.746 1.41-2.322 2.43-0.564 1.008-0.846 2.094-0.846 3.258 0 1.176 0.288 2.268 0.864 3.276s1.338 1.812 2.286 2.412c0.96 0.588 1.992 0.882 3.096 0.882 0.792 0 1.482-0.09 2.07-0.27 0.588-0.192 1.176-0.486 1.764-0.882v0.666c-0.576 0.348-1.17 0.6-1.782 0.756-0.6 0.168-1.26 0.252-1.98 0.252z"/>
  <path d="m154.65 46.5h0.594v7.83h9.252v-7.83h0.594v13.5h-0.594v-5.148h-9.252v5.148h-0.594v-13.5z"/>
  <path d="m184.35 60h-0.63l-2.556-5.148h-7.164l-2.502 5.148h-0.63l6.732-13.824 6.75 13.824zm-3.402-5.67-3.384-6.858-3.312 6.858h6.696z"/>
  <path d="m96.603 14.364c-1.749 0-3.3478 0.4505-4.7965 1.3515-1.431 0.8833-2.5705 2.0758-3.4185 3.5775-0.8303 1.484-1.2455 3.0828-1.2455 4.7965 0 1.7313 0.424 3.339 1.272 4.823s1.9699 2.6677 3.3655 3.551c1.4134 0.8657 2.9327 1.2985 4.558 1.2985 0.954 0 1.802-0.0883 2.544-0.265 0.7597-0.1767 1.484-0.4593 2.173-0.848v-6.2275h-6.572v-0.7685h7.447v6.4395l0.053-0.0265v0.9805c-0.848 0.5123-1.723 0.8833-2.624 1.113-0.8833 0.2473-1.855 0.371-2.915 0.371-1.855 0-3.5598-0.4505-5.1145-1.3515-1.5546-0.9187-2.7913-2.173-3.71-3.763-0.901-1.6077-1.3515-3.4097-1.3515-5.406 0-1.9257 0.4682-3.6835 1.4045-5.2735 0.954-1.59 2.2172-2.8443 3.7895-3.763 1.59-0.9187 3.2772-1.378 5.0615-1.378 1.2367 0 2.2172 0.1148 2.9415 0.3445 0.724 0.212 1.564 0.5918 2.518 1.1395v0.9805c-0.901-0.6183-1.741-1.0512-2.518-1.2985-0.7596-0.265-1.7136-0.3975-2.862-0.3975z"/>
  <path d="m129.74 34h-0.928l-3.763-7.579h-10.547l-3.683 7.579h-0.928l9.911-20.352 9.938 20.352zm-5.009-8.3475-4.982-10.096-4.876 10.096h9.858z"/>
  <path d="m138.26 14.125h0.848c1.395 0 2.42 0.3268 3.074 0.9805 0.653 0.636 0.98 1.5812 0.98 2.8355 0 0.7243-0.212 1.4222-0.636 2.0935-0.424 0.6537-0.936 1.0953-1.537 1.325 1.52 0.2473 2.694 0.8833 3.525 1.908 0.83 1.0247 1.245 2.3673 1.245 4.028 0 1.325-0.291 2.4998-0.874 3.5245-0.583 1.007-1.387 1.7932-2.412 2.3585-1.007 0.5477-2.129 0.8215-3.365 0.8215h-0.848v-19.875zm1.06 6.996c0.848 0 1.563-0.3092 2.146-0.9275s0.875-1.378 0.875-2.279c0-1.007-0.248-1.7667-0.742-2.279-0.477-0.5123-1.237-0.7685-2.279-0.7685h-0.212v6.254h0.212zm0 12.137c1.042 0 1.987-0.2473 2.835-0.742 0.848-0.5123 1.52-1.219 2.014-2.12 0.495-0.901 0.742-1.9168 0.742-3.0475 0-1.8197-0.486-3.1888-1.457-4.1075-0.954-0.9363-2.332-1.4045-4.134-1.4045h-0.212v11.422h0.212z"/>
  <path d="m154.51 14.125h1.139c2.067 0 3.657 0.5477 4.77 1.643 1.131 1.0953 1.696 2.6588 1.696 4.6905 0 1.166-0.282 2.2348-0.848 3.2065-0.547 0.9717-1.298 1.7402-2.252 2.3055-0.954 0.5477-2.005 0.8215-3.154 0.8215h-0.185l6.837 7.208h-1.14l-6.015-6.307v6.307h-0.848v-19.875zm1.325 11.898c1.007 0 1.925-0.2473 2.756-0.742 0.83-0.4947 1.484-1.1572 1.961-1.9875 0.477-0.848 0.715-1.7843 0.715-2.809 0-1.7843-0.486-3.1623-1.457-4.134-0.954-0.9717-2.323-1.4575-4.108-1.4575h-0.344v11.13h0.477z"/>
  <path d="M171.152 14.125H172.027V34H171.152V14.125Z"/>
  <path d="m181.92 14.125h7.128v0.7685h-6.254v10.812h5.221v0.7685h-5.221v6.7575h6.254v0.7685h-7.128v-19.875z"/>
  <path d="m197.39 14.125h0.875v19.106h6.148v0.7685h-7.023v-19.875z"/>
 </mask>
 <path d="m49.846 1.0098c-2.1789-0.077355-4.38 0.32101-6.4531 1.2051l-32.662 13.791c-5.9232 2.4754-9.7305 8.3983-9.7305 15.117v26.521c0 4.774 1.9467 9.2828 5.416 12.377 2.877 2.5638 6.5151 3.9785 10.238 3.9785 0.38075 0 0.7618-0.022206 1.1426-0.066406s0.76183-0.11082 1.1426-0.19922l41.715-6.3652c4.4001-0.7072 8.3781-3.3581 10.832-7.248s3.1299-8.753 1.9453-13.262l-9.1387-33.947c-1.1847-4.5088-4.1461-8.2225-8.123-10.256-1.9885-1.0167-4.1453-1.5691-6.3242-1.6465zm-0.24414 5.2812c1.4702 0.055254 2.9294 0.43142 4.2832 1.1387 2.7077 1.3261 4.6538 3.8906 5.5 6.8965l9.0547 34.035c0.8461 3.0059 0.33817 6.2775-1.2695 8.9297s-4.3157 4.4213-7.2773 4.8633l-41.715 6.2754c-3.0462 0.442-6.1782-0.4407-8.4629-2.5625-2.2846-2.0333-3.6387-5.1279-3.6387-8.3105v-26.521c0-4.5088 2.6246-8.4882 6.6016-10.168l32.576-13.791c1.3962-0.57464 2.8774-0.84041 4.3477-0.78516z" fill="#d9d9d9"/>
 <path d="m96.523 13.596c-1.7843 0-3.4705 0.45825-5.0605 1.377-1.5723 0.9187-2.837 2.1737-3.791 3.7637-0.9363 1.59-1.4043 3.3477-1.4043 5.2734 0 1.9963 0.45056 3.7986 1.3516 5.4062 0.9187 1.59 2.1563 2.843 3.7109 3.7617 1.5547 0.901 3.2583 1.3516 5.1133 1.3516 1.06 0 2.0327-0.12379 2.916-0.37109 0.901-0.2297 1.775-0.59903 2.623-1.1113v-0.98047l-0.05273 0.025391v-6.4395h-7.4473v0.76953h6.5723v6.2266c-0.689 0.3887-1.4122 0.67096-2.1719 0.84766-0.742 0.1767-1.5909 0.26562-2.5449 0.26562-1.6253 0-3.1452-0.43313-4.5586-1.2988-1.3956-0.8833-2.5172-2.0668-3.3652-3.5508-0.848-1.484-1.2715-3.091-1.2715-4.8223 0-1.7137 0.41579-3.3129 1.2461-4.7969 0.848-1.5017 1.987-2.6948 3.418-3.5781 1.4487-0.901 3.0479-1.3516 4.7969-1.3516 1.1484 0 2.1017 0.13344 2.8613 0.39844 0.3885 0.12365 0.79314 0.29334 1.2129 0.50976s0.85419 0.47796 1.3047 0.78711v-0.98047c-0.954-0.5477-1.7936-0.92667-2.5176-1.1387-0.7243-0.2297-1.7047-0.34375-2.9414-0.34375zm23.275 0.052735-9.9121 20.352h0.92773l3.6836-7.5781h10.547l3.7637 7.5781h0.92774l-9.9375-20.352zm18.457 0.47656v19.875h0.84766c0.309 0 0.60956-0.016555 0.90429-0.050781 0.88421-0.10268 1.7057-0.36071 2.4609-0.77148 1.025-0.5653 1.8291-1.3504 2.4121-2.3574 0.583-1.0247 0.87305-2.2004 0.87305-3.5254 0-1.6607-0.41414-3.0026-1.2441-4.0273-0.831-1.0247-2.0054-1.6609-3.5254-1.9082 0.60099-0.2297 1.1131-0.67052 1.5371-1.3242 0.424-0.6713 0.63477-1.3694 0.63477-2.0938 0-1.2543-0.32552-2.1999-0.97852-2.8359-0.654-0.6537-1.6792-0.98047-3.0742-0.98047h-0.84766zm16.252 0v19.875h0.84766v-6.3066l6.0156 6.3066h1.1406l-6.8379-7.207h0.18555c1.149 0 2.2003-0.27457 3.1543-0.82227 0.954-0.5653 1.705-1.3349 2.252-2.3066 0.56601-0.9717 0.84766-2.0391 0.84766-3.2051 0-2.0317-0.56431-3.5961-1.6953-4.6914-1.113-1.0953-2.7045-1.6426-4.7715-1.6426h-1.1387zm16.645 0v19.875h0.875v-19.875h-0.875zm10.764 0v19.875h7.1289v-0.76758h-6.2559v-6.7578h5.2227v-0.76953h-5.2227v-10.812h6.2559v-0.76758h-7.1289zm15.477 0v19.875h7.0215v-0.76758h-6.1465v-19.107h-0.875zm-58.289 0.74219h0.21093c1.042 0 1.8023 0.25528 2.2793 0.76758 0.494 0.5123 0.74219 1.2723 0.74219 2.2793 0 0.901-0.292 1.661-0.875 2.2793s-1.2985 0.92774-2.1465 0.92774h-0.21093v-6.2539zm16.252 0.02539h0.34375c1.785 0 3.1554 0.48728 4.1094 1.459 0.971 0.9717 1.457 2.3485 1.457 4.1328 0 1.0247-0.23784 1.9625-0.71484 2.8105-0.477 0.8303-1.1309 1.4916-1.9609 1.9863-0.831 0.4947-1.7508 0.74219-2.7578 0.74219h-0.47656v-11.131zm-35.611 0.66406 4.9824 10.096h-9.8574l4.875-10.096zm19.359 6.2793h0.21093c1.802 0 3.1808 0.468 4.1348 1.4043 0.971 0.9187 1.457 2.2877 1.457 4.1074 0 1.1307-0.24719 2.1478-0.74219 3.0488-0.494 0.901-1.1657 1.6068-2.0137 2.1191-0.848 0.4947-1.7939 0.74219-2.8359 0.74219h-0.21093v-11.422zm-13.941 24.305c-1.26 0-2.4298 0.3227-3.5098 0.9707-1.08 0.636-1.9382 1.4998-2.5742 2.5918-0.63599 1.08-0.95507 2.2442-0.95507 3.4922 0 1.26 0.3135 2.4429 0.9375 3.5469 0.636 1.092 1.4942 1.967 2.5742 2.627s2.2498 0.99023 3.5098 0.99023c1.272 0 2.4418-0.31712 3.5098-0.95312 1.08-0.648 1.9326-1.5174 2.5566-2.6094 0.636-1.104 0.95312-2.3056 0.95312-3.6016 0-1.26-0.31712-2.4298-0.95312-3.5098-0.624-1.092-1.4711-1.9558-2.5391-2.5918s-2.2378-0.95312-3.5098-0.95312zm19.439 0c-1.212 0-2.3575 0.31155-3.4375 0.93555-1.068 0.624-1.9262 1.4766-2.5742 2.5566-0.636 1.08-0.95312 2.274-0.95312 3.582 0 1.356 0.30597 2.5799 0.91797 3.6719 0.624 1.08 1.4635 1.9307 2.5195 2.5547 0.792 0.459 1.6421 0.74658 2.5488 0.86133 0.30225 0.03825 0.61078 0.056641 0.92578 0.056641 0.72 0 1.3785-0.083953 1.9785-0.25195 0.612-0.156 1.2072-0.40786 1.7832-0.75586v-0.66602c-0.588 0.396-1.1757 0.69081-1.7637 0.88281-0.58801 0.18-1.2783 0.26953-2.0703 0.26953-1.104 0-2.1357-0.29481-3.0957-0.88281-0.948-0.6-1.7111-1.4022-2.2871-2.4102s-0.86328-2.1013-0.86328-3.2773c0-1.164 0.2817-2.2498 0.8457-3.2578 0.576-1.02 1.3503-1.8297 2.3223-2.4297 0.984-0.612 2.0698-0.91797 3.2578-0.91797 0.78 0 1.4274 0.089532 1.9434 0.26953 0.264 0.084 0.53922 0.20066 0.82422 0.34766s0.58072 0.32516 0.88672 0.53516v-0.66602c-0.648-0.372-1.2189-0.63139-1.7109-0.77539-0.492-0.156-1.158-0.23242-1.998-0.23242zm33.002 0.035156-6.7324 13.824h0.63086l2.502-5.1484h7.1641l2.5547 5.1484h0.63086l-6.75-13.824zm-70.119 0.32422v13.5h0.57617v-4.2832l4.0859 4.2832h0.77344l-4.6445-4.8965h0.12695c0.78 0 1.4946-0.18464 2.1426-0.55664 0.648-0.384 1.1573-0.90641 1.5293-1.5664 0.384-0.66 0.57617-1.3857 0.57617-2.1777 0-1.38-0.38434-2.4435-1.1523-3.1875-0.756-0.744-1.8362-1.1152-3.2402-1.1152h-0.77343zm47.164 0v13.5h0.59375v-5.1484h9.252v5.1484h0.59375v-13.5h-0.59375v7.8301h-9.252v-7.8301h-0.59375zm-29.486 0.16211c1.152 0 2.2191 0.30039 3.2031 0.90039 0.984 0.588 1.7638 1.3846 2.3398 2.3926s0.86523 2.1013 0.86523 3.2773c0 1.188-0.29481 2.2925-0.88281 3.3125-0.576 1.008-1.3558 1.8102-2.3398 2.4102-0.984 0.588-2.0511 0.88281-3.2031 0.88281s-2.2211-0.29481-3.2051-0.88281c-0.984-0.6-1.7694-1.4022-2.3574-2.4102-0.576-1.02-0.86328-2.1245-0.86328-3.3125 0-1.176 0.28728-2.2693 0.86328-3.2773 0.588-1.008 1.3734-1.8046 2.3574-2.3926 0.984-0.6 2.0587-0.90039 3.2227-0.90039zm-17.102 0.35938h0.23437c1.212 0 2.1411 0.33024 2.7891 0.99024 0.66 0.66 0.99024 1.5966 0.99024 2.8086 0 0.696-0.16233 1.3322-0.48633 1.9082-0.324 0.564-0.76803 1.0136-1.332 1.3496s-1.1871 0.50391-1.8711 0.50391h-0.32422v-7.5605zm69.506 0.45117 3.3848 6.8574h-6.6953l3.3106-6.8574z" fill="#d9d9d9" stroke="#d9d9d9" stroke-width=".4"/>
</svg>
