<?xml version="1.0" encoding="UTF-8"?>
<svg width="406" height="381" version="1.1" viewBox="0 0 406 381" xmlns="http://www.w3.org/2000/svg">
 <mask x="-0.585236" y="0" width="407" height="381" fill="black" maskUnits="userSpaceOnUse">
  <rect x="-.58524" width="407" height="381" fill="#fff"/>
  <path d="m153.54 176.14c-8.916 0-17.63-3.394-24.52-9.545-8.308-7.424-12.969-18.241-12.969-29.695v-63.633c0-16.12 9.119-30.332 23.304-36.271l78.221-33.089c9.93-4.2422 21.075-3.818 30.6 1.0605 9.524 4.8785 16.617 13.787 19.454 24.605l21.885 81.45c2.837 10.817 1.216 22.483-4.661 31.816-5.876 9.333-15.401 15.696-25.938 17.393l-99.904 15.272c-1.824 0.424-3.648 0.636-5.472 0.636zm-9.524-127.48c-9.524 4.03-15.806 13.575-15.806 24.392v63.633c0 7.636 3.242 15.059 8.713 19.938 5.472 5.091 12.97 7.212 20.265 6.151l99.904-15.06c7.093-1.06 13.577-5.302 17.428-11.666 3.85-6.363 5.066-14.211 3.039-21.423l-21.683-81.662c-2.026-7.2117-6.687-13.363-13.172-16.544-6.484-3.3937-13.982-3.6058-20.67-0.8484l-78.018 33.089z"/>
  <path d="m73.142 332.4h2.6532c4.8128 0 8.515 1.277 11.106 3.832 2.6327 2.555 3.949 6.203 3.949 10.942 0 2.72-0.6581 5.213-1.9745 7.48-1.2752 2.266-3.0234 4.059-5.2447 5.377-2.2213 1.278-4.6689 1.917-7.3427 1.917h-0.4319l15.919 16.814h-2.6532l-14.007-14.712v14.712h-1.9745v-46.362zm3.0851 27.755c2.3448 0 4.4838-0.577 6.4171-1.731 1.9334-1.154 3.4554-2.699 4.5661-4.636 1.1106-1.978 1.6659-4.162 1.6659-6.552 0-4.163-1.1312-7.377-3.3936-9.644-2.2213-2.266-5.4093-3.4-9.564-3.4h-0.8021v25.963h1.1106z"/>
  <path d="m133.68 380c-4.319 0-8.33-1.133-12.032-3.4-3.702-2.266-6.643-5.275-8.824-9.025-2.139-3.791-3.208-7.851-3.208-12.178 0-4.286 1.09-8.283 3.27-11.992 2.18-3.75 5.121-6.717 8.824-8.901 3.702-2.226 7.712-3.339 12.032-3.339 4.36 0 8.371 1.093 12.032 3.277s6.561 5.151 8.7 8.901c2.18 3.709 3.27 7.727 3.27 12.054 0 4.451-1.09 8.572-3.27 12.363-2.139 3.751-5.06 6.738-8.762 8.964-3.661 2.184-7.672 3.276-12.032 3.276zm0-1.793c3.949 0 7.61-1.009 10.983-3.029 3.373-2.06 6.047-4.821 8.021-8.283 2.016-3.503 3.024-7.294 3.024-11.374 0-4.039-0.987-7.789-2.962-11.251-1.974-3.461-4.648-6.202-8.021-8.221-3.373-2.061-7.034-3.091-10.983-3.091-3.99 0-7.672 1.03-11.045 3.091-3.373 2.019-6.068 4.76-8.083 8.221-1.975 3.462-2.962 7.212-2.962 11.251 0 4.08 0.987 7.871 2.962 11.374 2.015 3.462 4.71 6.223 8.083 8.283 3.373 2.02 7.034 3.029 10.983 3.029z"/>
  <path d="m200.2 380c-4.319 0-8.289-1.051-11.908-3.153-3.62-2.143-6.5-5.069-8.639-8.777-2.098-3.751-3.147-7.954-3.147-12.611 0-4.492 1.09-8.592 3.271-12.301 2.221-3.709 5.162-6.635 8.823-8.778 3.702-2.143 7.631-3.215 11.785-3.215 2.88 0 5.163 0.268 6.849 0.804 1.687 0.495 3.641 1.381 5.862 2.658v2.287c-2.098-1.442-4.052-2.452-5.862-3.029-1.768-0.618-3.99-0.927-6.664-0.927-4.072 0-7.795 1.051-11.168 3.153-3.332 2.06-5.985 4.842-7.96 8.345-1.933 3.462-2.9 7.191-2.9 11.189 0 4.038 0.988 7.788 2.962 11.25 1.975 3.462 4.587 6.223 7.836 8.283 3.291 2.02 6.829 3.029 10.613 3.029 2.715 0 5.081-0.309 7.096-0.927 2.016-0.659 4.031-1.669 6.047-3.029v2.287c-1.974 1.195-4.011 2.061-6.108 2.597-2.057 0.577-4.32 0.865-6.788 0.865z"/>
  <path d="m234.82 332.4h2.036v26.89h31.716v-26.89h2.036v46.362h-2.036v-17.68h-31.716v17.68h-2.036v-46.362z"/>
  <path d="m336.64 378.76h-2.159l-8.762-17.68h-24.558l-8.576 17.68h-2.16l23.077-47.475 23.138 47.475zm-11.661-19.472-11.601-23.552-11.353 23.552h22.954z"/>
  <path d="m35.842 222.04c-5.9954 0-11.476 1.547-16.442 4.641-4.9054 3.034-8.8115 7.129-11.718 12.286-2.8463 5.097-4.2695 10.587-4.2695 16.473 0 5.945 1.4534 11.466 4.3603 16.563 2.9069 5.096 6.7525 9.161 11.537 12.195 4.8448 2.973 10.053 4.459 15.624 4.459 3.2703 0 6.1772-0.303 8.7207-0.91 2.6041-0.607 5.0871-1.577 7.4489-2.912v-21.387h-22.528v-2.639h25.526v22.115l0.1816-0.091v3.367c-2.9069 1.759-5.9046 3.033-8.9932 3.822-3.028 0.85-6.3588 1.274-9.9924 1.274-6.3588 0-12.203-1.547-17.532-4.641-5.3293-3.155-9.5685-7.463-12.718-12.923-3.0886-5.521-4.6329-11.71-4.6329-18.565 0-6.614 1.6048-12.65 4.8145-18.111 3.2702-5.46 7.6003-9.768 12.99-12.923 5.4504-3.155 11.234-4.732 17.35-4.732 4.2392 0 7.6003 0.394 10.083 1.183 2.483 0.728 5.3596 2.032 8.6298 3.913v3.368c-3.0885-2.124-5.9651-3.61-8.6298-4.46-2.6041-0.91-5.8743-1.365-9.8108-1.365z"/>
  <path d="m149.42 289.47h-3.179l-12.899-26.028h-36.155l-12.627 26.028h-3.1794l33.974-69.893 34.065 69.893zm-17.169-28.667-17.078-34.674-16.714 34.674h33.792z"/>
  <path d="m178.62 221.22h2.907c4.785 0 8.297 1.122 10.538 3.367 2.241 2.184 3.361 5.43 3.361 9.738 0 2.488-0.727 4.884-2.18 7.19-1.454 2.244-3.21 3.761-5.269 4.55 5.208 0.849 9.235 3.033 12.082 6.552 2.846 3.519 4.269 8.13 4.269 13.833 0 4.551-0.999 8.585-2.997 12.104-1.999 3.459-4.754 6.158-8.267 8.1-3.452 1.881-7.297 2.821-11.537 2.821h-2.907v-68.255zm3.634 24.026c2.907 0 5.36-1.062 7.358-3.185 1.999-2.124 2.998-4.733 2.998-7.827 0-3.458-0.848-6.067-2.544-7.827-1.635-1.759-4.239-2.639-7.812-2.639h-0.727v21.478h0.727zm0 41.681c3.573 0 6.813-0.85 9.72-2.548 2.907-1.76 5.208-4.187 6.904-7.281s2.543-6.583 2.543-10.466c0-6.249-1.665-10.951-4.996-14.106-3.27-3.215-7.994-4.823-14.171-4.823h-0.727v39.224h0.727z"/>
  <path d="m234.34 221.22h3.906c7.085 0 12.536 1.881 16.351 5.642 3.876 3.762 5.814 9.131 5.814 16.109 0 4.004-0.969 7.675-2.907 11.011-1.877 3.337-4.451 5.977-7.721 7.918-3.271 1.881-6.874 2.821-10.81 2.821h-0.636l23.436 24.754h-3.906l-20.62-21.66v21.66h-2.907v-68.255zm4.542 40.862c3.452 0 6.601-0.849 9.447-2.548s5.087-3.974 6.722-6.826c1.635-2.912 2.453-6.127 2.453-9.646 0-6.128-1.665-10.86-4.996-14.197-3.27-3.337-7.964-5.006-14.081-5.006h-1.18v38.223h1.635z"/>
  <path d="m291.39 221.22h2.998v68.255h-2.998v-68.255z"/>
  <path d="m328.29 221.22h24.436v2.639h-21.438v37.131h17.895v2.639h-17.895v23.207h21.438v2.639h-24.436v-68.255z"/>
  <path d="m381.34 221.22h2.998v65.616h21.075v2.639h-24.073v-68.255z"/>
 </mask>
 <g fill="#0D0D0D">
  <path d="m233.02 1.0234c-5.2181-0.18559-10.488 0.76758-15.453 2.8887l-78.221 33.09c-14.185 5.939-23.303 20.149-23.303 36.27v63.633c-1e-5 11.454 4.6608 22.271 12.969 29.695 6.89 6.151 15.604 9.5449 24.52 9.5449 0.912 0 1.8243-0.0522 2.7363-0.1582s1.8243-0.26456 2.7363-0.47656l99.902-15.273c10.537-1.697 20.063-8.0596 25.939-17.393 5.877-9.333 7.4972-20.999 4.6602-31.816l-21.885-81.449c-2.837-10.818-9.9291-19.727-19.453-24.605-4.7625-2.4392-9.9303-3.7636-15.148-3.9492zm-0.58203 12.672c3.521 0.13256 7.0158 1.0356 10.258 2.7324 6.485 3.1817 11.146 9.3313 13.172 16.543l21.684 81.662c2.027 7.212 0.81094 15.061-3.0391 21.424-3.851 6.364-10.335 10.606-17.428 11.666l-99.904 15.059c-7.295 1.061-14.794-1.0594-20.266-6.1504-5.471-4.879-8.7129-12.302-8.7129-19.938v-63.633c0-10.818 6.2826-20.363 15.807-24.393l78.018-33.09c3.344-1.3787 6.8911-2.0154 10.412-1.8828z"/>
  <path d="m133.74 331.16c-4.32 0-8.3312 1.1138-12.033 3.3398-3.703 2.184-6.6423 5.1504-8.8223 8.9004-2.18 3.709-3.2715 7.7062-3.2715 11.992 0 4.327 1.07 8.3867 3.209 12.178 2.181 3.75 5.1222 6.7594 8.8242 9.0254 3.702 2.267 7.7122 3.4004 12.031 3.4004 4.36 0 8.3722-1.0914 12.033-3.2754 3.702-2.226 6.6227-5.2138 8.7617-8.9648 2.18-3.791 3.2695-7.9123 3.2695-12.363 0-4.327-1.0895-8.3437-3.2695-12.053-2.139-3.75-5.0402-6.7183-8.7012-8.9023s-7.6712-3.2774-12.031-3.2774zm66.641 0c-4.154 0-8.0832 1.0738-11.785 3.2168-3.661 2.143-6.6032 5.0683-8.8242 8.7773-2.181 3.709-3.2695 7.8088-3.2695 12.301 0 4.657 1.0485 8.8603 3.1465 12.611 2.139 3.708 5.0187 6.6344 8.6387 8.7774 2.7142 1.5765 5.6261 2.561 8.7344 2.9551 1.0361 0.13138 2.0941 0.19727 3.1738 0.19727 2.468 0 4.7301-0.28823 6.7871-0.86523 2.097-0.536 4.1354-1.4027 6.1094-2.5977v-2.2852c-2.016 1.36-4.0309 2.3684-6.0469 3.0274-2.015 0.618-4.3826 0.92773-7.0976 0.92773-3.784 0-7.3203-1.0093-10.611-3.0293-3.249-2.06-5.8629-4.8212-7.8379-8.2832-1.974-3.462-2.9609-7.212-2.9609-11.25 0-3.998 0.96739-7.7274 2.9004-11.189 1.975-3.503 4.627-6.2838 7.959-8.3438 3.373-2.102 7.096-3.1543 11.168-3.1543 2.674 0 4.8961 0.30974 6.6641 0.92774 0.905 0.2885 1.8472 0.68457 2.8242 1.1894 0.977 0.50487 1.9901 1.1188 3.0391 1.8398v-2.2871c-2.221-1.277-4.1763-2.1632-5.8633-2.6582-1.686-0.536-3.9677-0.80469-6.8477-0.80469zm113.13 0.125-23.078 47.475h2.1602l8.5762-17.68h24.559l8.7617 17.68h2.1582l-23.137-47.475zm-240.37 1.1133v46.361h1.9746v-14.711l14.006 14.711h2.6543l-15.92-16.814h0.43164c2.6738 0 5.1205-0.63802 7.3418-1.916 2.2213-1.318 3.9709-3.111 5.2461-5.377 1.3164-2.267 1.9746-4.7605 1.9746-7.4805 0-4.739-1.3165-8.3864-3.9492-10.941-2.5915-2.555-6.2946-3.832-11.107-3.832h-2.6523zm161.68 0v46.361h2.0352v-17.68h31.717v17.68h2.0352v-46.361h-2.0352v26.891h-31.717v-26.891h-2.0352zm-101.08 0.55469c3.949 0 7.6094 1.0308 10.982 3.0918 3.373 2.019 6.0475 4.7597 8.0215 8.2207 1.975 3.462 2.9609 7.213 2.9609 11.252 0 4.08-1.0074 7.87-3.0234 11.373-1.974 3.462-4.6485 6.2232-8.0215 8.2832-3.373 2.02-7.0334 3.0293-10.982 3.0293s-7.6094-1.0093-10.982-3.0293c-3.373-2.06-6.069-4.8212-8.084-8.2832-1.975-3.503-2.9609-7.293-2.9609-11.373 0-4.039 0.98594-7.79 2.9609-11.252 2.015-3.461 4.711-6.2017 8.084-8.2207 3.373-2.061 7.0549-3.0918 11.045-3.0918zm-58.623 1.2363h0.80078c4.1547 0 7.3432 1.1344 9.5645 3.4004 2.2624 2.267 3.3945 5.4815 3.3945 9.6445 0 2.39-0.55542 4.5728-1.666 6.5508-1.1107 1.937-2.633 3.4827-4.5664 4.6367-1.9333 1.154-4.0732 1.7305-6.418 1.7305h-1.1094v-25.963zm238.27 1.5469 11.602 23.553h-22.955l11.354-23.553z" stroke="#0D0D0D" stroke-width=".2"/>
  <path d="m35.57 219.4c-6.1166 0-11.901 1.5774-17.352 4.7324-5.3899 3.155-9.72 7.4638-12.99 12.924-3.2097 5.461-4.8145 11.495-4.8145 18.109 0 6.855 1.5442 13.045 4.6328 18.566 3.1491 5.46 7.3894 9.7669 12.719 12.922 5.3293 3.094 11.172 4.6426 17.531 4.6426 3.6336 0 6.9642-0.42539 9.9922-1.2754 3.0886-0.789 6.0872-2.0633 8.9941-3.8223v-3.3672l-0.18164 0.0918v-22.115h-25.525v2.6387h22.527v21.387c-2.3618 1.335-4.8451 2.3051-7.4492 2.9121-2.5435 0.607-5.4504 0.91016-8.7207 0.91016-5.5715 0-10.778-1.486-15.623-4.459-4.7843-3.034-8.6302-7.0974-11.537-12.193-2.9069-5.097-4.3613-10.619-4.3613-16.564 0-5.886 1.4232-11.376 4.2695-16.473 2.9069-5.157 6.8134-9.2512 11.719-12.285 4.966-3.094 10.446-4.6426 16.441-4.6426 3.9365 0 7.2064 0.45523 9.8105 1.3652 1.3324 0.425 2.718 1.0087 4.1562 1.752s2.9304 1.647 4.4746 2.709v-3.3691c-3.2702-1.881-6.1479-3.1841-8.6309-3.9121-2.483-0.789-5.8428-1.1836-10.082-1.1836zm79.783 0.18164-33.973 69.895h3.1777l12.627-26.029h36.156l12.898 26.029h3.1797l-34.066-69.895zm63.268 1.6387v68.256h2.9082c1.06 0 2.0948-0.06022 3.1055-0.17773 3.032-0.35255 5.8426-1.2338 8.4316-2.6445 3.513-1.942 6.2666-4.6406 8.2656-8.0996 1.998-3.519 2.998-7.5525 2.998-12.104 0-5.703-1.4235-10.315-4.2695-13.834-2.847-3.519-6.874-5.7018-12.082-6.5508 2.059-0.789 3.8155-2.3068 5.2695-4.5508 1.453-2.306 2.1797-4.7014 2.1797-7.1894 0-4.308-1.1203-7.5543-3.3613-9.7383-2.241-2.245-5.7521-3.3672-10.537-3.3672h-2.9082zm55.717 0v68.256h2.9062v-21.66l20.619 21.66h3.9062l-23.436-24.754h0.63672c3.936 0 7.5376-0.94126 10.809-2.8223 3.27-1.941 5.8456-4.581 7.7226-7.918 1.938-3.336 2.9062-7.0058 2.9062-11.01 0-6.978-1.9384-12.347-5.8144-16.109-3.815-3.761-9.2666-5.6426-16.352-5.6426h-3.9043zm57.055 0v68.256h2.998v-68.256h-2.998zm36.896 0v68.256h24.436v-2.6387h-21.438v-23.207h17.895v-2.6406h-17.895v-37.131h21.438v-2.6387h-24.436zm53.053 0v68.256h24.072v-2.6387h-21.074v-65.617h-2.998zm-199.81 2.5488h0.72656c3.573 0 6.1775 0.87967 7.8125 2.6387 1.696 1.76 2.543 4.3682 2.543 7.8262 0 3.094-0.99905 5.7041-2.998 7.8281-1.998 2.123-4.4504 3.1836-7.3574 3.1836h-0.72656v-21.477zm55.715 0.08984h1.1797c6.117 0 10.812 1.6689 14.082 5.0059 3.331 3.337 4.9961 8.0693 4.9961 14.197 0 3.519-0.81812 6.7345-2.4531 9.6465-1.635 2.852-3.8767 5.1272-6.7227 6.8262s-5.9953 2.5469-9.4473 2.5469h-1.6348v-38.223zm-122.07 2.2754 17.078 34.674h-33.793l16.715-34.674zm66.357 21.568h0.72656c6.177 0 10.902 1.6092 14.172 4.8242 3.331 3.155 4.9961 7.8565 4.9961 14.105 0 3.883-0.84697 7.3728-2.543 10.467s-3.9973 5.5212-6.9043 7.2812c-2.907 1.698-6.1477 2.5469-9.7207 2.5469h-0.72656v-39.225z" stroke="#0D0D0D" stroke-width=".1"/>
 </g>
</svg>
